<svg width="24" height="24" viewBox="0 0 24 24" fill="none" xmlns="http://www.w3.org/2000/svg">
<path fill-rule="evenodd" clip-rule="evenodd" d="M15.1105 5.13002C13.4627 5.13002 12.1831 6.41015 12.1831 7.92123C12.1831 9.4323 13.4627 10.7124 15.1105 10.7124C16.7583 10.7124 18.038 9.4323 18.038 7.92123C18.038 6.41015 16.7583 5.13002 15.1105 5.13002ZM10.3831 7.92123C10.3831 5.3551 12.5307 3.33002 15.1105 3.33002C17.6904 3.33002 19.838 5.3551 19.838 7.92123C19.838 10.4873 17.6904 12.5124 15.1105 12.5124C12.5307 12.5124 10.3831 10.4873 10.3831 7.92123ZM4.58504 7.02123C5.0821 7.02123 5.48504 7.42417 5.48504 7.92123V9.78963H7.45563C7.95268 9.78963 8.35563 10.1926 8.35563 10.6896C8.35563 11.1867 7.95268 11.5896 7.45563 11.5896H5.48504V13.458C5.48504 13.9551 5.0821 14.358 4.58504 14.358C4.08798 14.358 3.68504 13.9551 3.68504 13.458V11.5896H1.71445C1.2174 11.5896 0.814453 11.1867 0.814453 10.6896C0.814453 10.1926 1.2174 9.78963 1.71445 9.78963H3.68504V7.92123C3.68504 7.42417 4.08798 7.02123 4.58504 7.02123ZM15.1105 15.7422C10.1846 15.7422 8.93829 18.4976 8.82926 19.5491C8.77799 20.0435 8.33564 20.4027 7.84123 20.3515C7.34683 20.3002 6.98759 19.8578 7.03886 19.3634C7.24878 17.3389 9.31956 13.9422 15.1105 13.9422C20.9015 13.9422 22.9723 17.3389 23.1822 19.3634C23.2335 19.8578 22.8742 20.3002 22.3798 20.3515C21.8854 20.4027 21.4431 20.0435 21.3918 19.5491C21.2828 18.4976 20.0364 15.7422 15.1105 15.7422Z" fill="white"/>
</svg>
