<svg width="24" height="24" viewBox="0 0 24 24" fill="none" xmlns="http://www.w3.org/2000/svg">
<g id="Navigation / House_01">
<path id="Vector" d="M20 16.9987V11.4508C20 10.9164 19.9995 10.6491 19.9346 10.4005C19.877 10.1801 19.7825 9.9716 19.6546 9.78318C19.5102 9.57055 19.3096 9.39422 18.9074 9.04236L14.1074 4.84236C13.3608 4.18908 12.9875 3.8626 12.5674 3.73836C12.1972 3.62888 11.8026 3.62888 11.4324 3.73836C11.0126 3.86251 10.6398 4.18867 9.89436 4.84097L5.09277 9.04236C4.69064 9.39423 4.49004 9.57055 4.3457 9.78318C4.21779 9.97161 4.12255 10.1801 4.06497 10.4005C4 10.6491 4 10.9164 4 11.4508V16.9987C4 17.9306 4 18.3963 4.15224 18.7639C4.35523 19.2539 4.74432 19.6438 5.23438 19.8468C5.60192 19.999 6.06786 19.999 6.99974 19.999C7.93163 19.999 8.39808 19.999 8.76562 19.8468C9.25568 19.6438 9.64467 19.254 9.84766 18.764C9.9999 18.3964 10 17.9305 10 16.9986V15.9986C10 14.894 10.8954 13.9986 12 13.9986C13.1046 13.9986 14 14.894 14 15.9986V16.9986C14 17.9305 14 18.3964 14.1522 18.764C14.3552 19.254 14.7443 19.6438 15.2344 19.8468C15.6019 19.999 16.0679 19.999 16.9997 19.999C17.9316 19.999 18.3981 19.999 18.7656 19.8468C19.2557 19.6438 19.6447 19.2539 19.8477 18.7639C19.9999 18.3963 20 17.9306 20 16.9987Z" stroke="white" stroke-width="2" stroke-linecap="round" stroke-linejoin="round"/>
</g>
</svg>
