<svg width="36" height="36" viewBox="0 0 36 36" fill="none" xmlns="http://www.w3.org/2000/svg">
<path d="M21.0939 14.0011V10.4827H29.0983V4.93082H6.87955V10.4827H14.9064V14.0011C8.18174 14.3246 3.1333 15.6746 3.1333 17.2918C3.1333 18.9089 8.17611 20.2505 14.9064 20.5824V32.1952H21.0939V20.5824C27.8186 20.2618 32.8671 18.9118 32.8671 17.2918C32.8671 15.6718 27.8242 14.3246 21.0939 14.0011ZM18.0002 19.5305C10.7186 19.5305 4.81518 18.4055 4.81518 17.0499C4.81518 15.8827 9.11549 14.9039 14.9008 14.6424V18.6164C15.8964 18.6614 16.9314 18.6868 17.9946 18.6868C19.0577 18.6868 20.0983 18.6614 21.0883 18.6164V14.6424C26.8736 14.9039 31.1739 15.8827 31.1739 17.0499C31.1852 18.4196 25.2817 19.5305 18.0002 19.5305Z" fill="white"/>
</svg>
