<svg width="24" height="24" viewBox="0 0 24 24" fill="none" xmlns="http://www.w3.org/2000/svg">
<path fill-rule="evenodd" clip-rule="evenodd" d="M17.8031 6.03712C16.0739 4.33072 13.2945 4.33072 11.5653 6.03712L9.94963 7.63153C9.59583 7.98067 9.026 7.97689 8.67686 7.6231C8.32773 7.2693 8.3315 6.69947 8.6853 6.35033L10.301 4.75592C12.7311 2.35779 16.6373 2.35779 19.0674 4.75592C21.5436 7.19943 21.5436 11.1958 19.0674 13.6393L17.5525 15.1343C17.1987 15.4835 16.6289 15.4797 16.2798 15.1259C15.9306 14.7721 15.9344 14.2023 16.2882 13.8531L17.8031 12.3581C19.565 10.6195 19.565 7.77581 17.8031 6.03712ZM7.72192 8.56547C8.07105 8.91926 8.06727 9.4891 7.71348 9.83823L6.19856 11.3332C4.43668 13.0719 4.43668 15.9155 6.19856 17.6542C7.92773 19.3606 10.7072 19.3606 12.4364 17.6542L14.052 16.0598C14.4058 15.7107 14.9757 15.7145 15.3248 16.0683C15.6739 16.4221 15.6702 16.9919 15.3164 17.341L13.7007 18.9354C11.2706 21.3336 7.36437 21.3336 4.93423 18.9354C2.45812 16.4919 2.45812 12.4955 4.93423 10.052L6.44915 8.55704C6.80294 8.2079 7.37278 8.21168 7.72192 8.56547ZM14.8776 9.00681C15.2267 9.3606 15.2229 9.93044 14.8691 10.2796L10.3969 14.693C10.0431 15.0421 9.47323 15.0383 9.12409 14.6845C8.77496 14.3308 8.77873 13.7609 9.13253 13.4118L13.6048 8.99838C13.9586 8.64924 14.5284 8.65302 14.8776 9.00681Z" fill="#007AFF"/>
</svg>
