<svg width="36" height="36" viewBox="0 0 36 36" fill="none" xmlns="http://www.w3.org/2000/svg">
<rect width="36" height="36" fill="#1E1E1E"/>
<path d="M-1164 -532C-1164 -533.105 -1163.1 -534 -1162 -534H3033C3034.1 -534 3035 -533.105 3035 -532V2499C3035 2500.1 3034.1 2501 3033 2501H-1162C-1163.1 2501 -1164 2500.1 -1164 2499V-532Z" fill="#404040"/>
<path d="M-1162 -533H3033V-535H-1162V-533ZM3034 -532V2499H3036V-532H3034ZM3033 2500H-1162V2502H3033V2500ZM-1163 2499V-532H-1165V2499H-1163ZM-1162 2500C-1162.55 2500 -1163 2499.55 -1163 2499H-1165C-1165 2500.66 -1163.66 2502 -1162 2502V2500ZM3034 2499C3034 2499.55 3033.55 2500 3033 2500V2502C3034.66 2502 3036 2500.66 3036 2499H3034ZM3033 -533C3033.55 -533 3034 -532.552 3034 -532H3036C3036 -533.657 3034.66 -535 3033 -535V-533ZM-1162 -535C-1163.66 -535 -1165 -533.657 -1165 -532H-1163C-1163 -532.552 -1162.55 -533 -1162 -533V-535Z" fill="white" fill-opacity="0.1"/>
<g clip-path="url(#clip0_1_8)">
<rect x="-38" y="-312" width="390" height="871" rx="44" fill="#0F0F0F"/>
<rect x="-22" y="-18" width="358" height="72" rx="16" fill="#212121"/>
<g clip-path="url(#clip1_1_8)">
<g clip-path="url(#clip2_1_8)">
<rect x="-6" y="-6" width="48" height="48" rx="8" fill="white" fill-opacity="0.03"/>
<path fill-rule="evenodd" clip-rule="evenodd" d="M9.45 8.3C8.81487 8.3 8.3 8.81487 8.3 9.45C8.3 10.0851 8.81487 10.6 9.45 10.6L25.55 10.6C27.4554 10.6 29 12.1446 29 14.05V25.55C29 27.4554 27.4554 29 25.55 29H9.45C7.54462 29 6 27.4554 6 25.55V9.45C6 7.54462 7.54462 6 9.45 6H23.25C23.8851 6 24.4 6.51487 24.4 7.15C24.4 7.78513 23.8851 8.3 23.25 8.3H9.45ZM22.675 18.075C21.7223 18.075 20.95 18.8473 20.95 19.8C20.95 20.7527 21.7223 21.525 22.675 21.525C23.6277 21.525 24.4 20.7527 24.4 19.8C24.4 18.8473 23.6277 18.075 22.675 18.075Z" fill="#2990FF"/>
</g>
</g>
</g>
<rect x="-38.5" y="-312.5" width="391" height="872" rx="44.5" stroke="black" stroke-opacity="0.05"/>
<defs>
<clipPath id="clip0_1_8">
<rect x="-38" y="-312" width="390" height="871" rx="44" fill="white"/>
</clipPath>
<clipPath id="clip1_1_8">
<rect x="-6" y="-6" width="48" height="48" rx="4" fill="white"/>
</clipPath>
<clipPath id="clip2_1_8">
<rect width="48" height="48" fill="white" transform="translate(-6 -6)"/>
</clipPath>
</defs>
</svg>
